G04 EAGLE Gerber RS-274X export*
G75*
%MOMM*%
%FSLAX34Y34*%
%LPD*%
%INBottom Copper*%
%IPPOS*%
%AMOC8*
5,1,8,0,0,1.08239X$1,22.5*%
G01*
G04 Define Apertures*
%ADD10C,2.160000*%
%ADD11C,1.800000*%
%ADD12C,1.828800*%
%ADD13P,1.9483X8X75.1*%
%ADD14P,1.9483X8X190.9*%
%ADD15P,1.9483X8X113.7*%
%ADD16C,1.879600*%
%ADD17C,1.270000*%
D10*
X457200Y469900D03*
X457200Y419100D03*
X177800Y303897D03*
X228539Y306379D03*
X139700Y457200D03*
X190500Y457200D03*
X33660Y317500D03*
X33660Y266700D03*
X33660Y292100D03*
X322870Y63500D03*
X373657Y64653D03*
D11*
X95360Y203200D03*
X69960Y203200D03*
X44560Y203200D03*
X44560Y127000D03*
X69960Y127000D03*
X95360Y127000D03*
X322345Y444159D03*
X322523Y418759D03*
X322700Y393360D03*
X398898Y393892D03*
X398721Y419291D03*
X398544Y444691D03*
D12*
X254000Y225044D02*
X254000Y206756D01*
X279400Y206756D02*
X279400Y225044D01*
X304800Y225044D02*
X304800Y206756D01*
X356352Y291353D02*
X357150Y309623D01*
X382526Y308515D02*
X381728Y290245D01*
X407104Y289137D02*
X407902Y307408D01*
X231504Y91948D02*
X213216Y91948D01*
X213216Y66548D02*
X231504Y66548D01*
X231504Y41148D02*
X213216Y41148D01*
X388076Y208419D02*
X389224Y226671D01*
X414574Y225076D02*
X413426Y206824D01*
X438776Y205229D02*
X439924Y223481D01*
D13*
X68486Y40821D03*
X61066Y62481D03*
X83914Y60999D03*
D14*
X469319Y57651D03*
X460709Y78866D03*
X444438Y62759D03*
D15*
X121026Y279403D03*
X101714Y291701D03*
X120494Y304797D03*
D11*
X205100Y152400D03*
X277500Y152400D03*
X381197Y126803D03*
X330003Y177997D03*
X137828Y188477D03*
X143382Y116290D03*
X469900Y124340D03*
X469900Y196740D03*
X190247Y226953D03*
X117847Y226953D03*
X274351Y352473D03*
X274478Y280073D03*
X19160Y469900D03*
X91560Y469900D03*
X116200Y381000D03*
X188600Y381000D03*
D16*
X19618Y371607D03*
X84634Y370586D03*
X20328Y416814D03*
X85344Y415793D03*
X242824Y423418D03*
X242824Y488442D03*
X288036Y423418D03*
X288036Y488442D03*
D17*
X408732Y221218D02*
X414000Y215950D01*
X408732Y221218D02*
X408732Y234751D01*
X382127Y261356D02*
X382127Y299380D01*
X382127Y261356D02*
X408732Y234751D01*
X414000Y104995D02*
X373657Y64653D01*
X414000Y104995D02*
X414000Y215950D01*
X279400Y215900D02*
X279400Y190500D01*
X241300Y152400D01*
X241300Y145070D01*
X322870Y63500D01*
X319822Y66548D02*
X222360Y66548D01*
X319822Y66548D02*
X322870Y63500D01*
X304405Y152400D02*
X277500Y152400D01*
X304405Y152400D02*
X330003Y177997D01*
X330003Y190697D02*
X304800Y215900D01*
X330003Y190697D02*
X330003Y177997D01*
X381000Y469900D02*
X457200Y469900D01*
X381000Y469900D02*
X381000Y453826D01*
X379583Y452410D01*
X381000Y384976D02*
X381000Y337443D01*
X379583Y386393D02*
X379583Y452410D01*
X379583Y386393D02*
X381000Y384976D01*
X381000Y337443D02*
X401902Y316541D01*
X401902Y303873D02*
X407503Y298272D01*
X401902Y303873D02*
X401902Y316541D01*
X304800Y317500D02*
X304800Y215900D01*
X304800Y317500D02*
X330200Y342900D01*
X375543Y342900D01*
X381000Y337443D01*
X44560Y127000D02*
X44560Y72018D01*
X66602Y42705D02*
X68486Y40821D01*
X66602Y42705D02*
X52875Y42705D01*
X41291Y54289D01*
X41291Y68749D02*
X44560Y72018D01*
X41291Y68749D02*
X41291Y54289D01*
X68486Y40821D02*
X222033Y40821D01*
X222360Y41148D01*
X457200Y393700D02*
X457200Y419100D01*
X457200Y393700D02*
X399090Y393700D01*
X398898Y393892D01*
X398898Y363102D01*
X444500Y317500D01*
X444500Y219506D01*
X439350Y214355D01*
X467749Y57651D02*
X469319Y57651D01*
X467749Y57651D02*
X426607Y16510D01*
X246998Y16510D01*
X222360Y41148D01*
X439350Y170250D02*
X439350Y214355D01*
X439350Y170250D02*
X457200Y152400D01*
X491490Y152400D01*
X491490Y79822D01*
X469319Y57651D01*
X469900Y88057D02*
X469900Y124340D01*
X469900Y88057D02*
X460709Y78866D01*
X143382Y116290D02*
X114876Y116290D01*
X64138Y65552D02*
X61066Y62481D01*
X64138Y65552D02*
X64138Y69190D01*
X74211Y79263D01*
X77849Y79263D01*
X114876Y116290D01*
X356751Y249444D02*
X356751Y300488D01*
X356751Y249444D02*
X388650Y217545D01*
X388650Y134255D01*
X381197Y126803D01*
X342900Y54490D02*
X342900Y38100D01*
X342900Y54490D02*
X343766Y55355D01*
X343766Y89371D02*
X381197Y126803D01*
X343766Y89371D02*
X343766Y55355D01*
X342900Y38100D02*
X419779Y38100D01*
X444438Y62759D01*
X117847Y225687D02*
X117847Y226953D01*
X117847Y225687D02*
X95360Y203200D01*
X274351Y352473D02*
X290178Y368300D01*
X355600Y368300D01*
X355600Y444500D01*
X322687Y444500D01*
X322345Y444159D01*
X177800Y303897D02*
X190247Y291450D01*
X190247Y226953D01*
X254845Y280073D02*
X228539Y306379D01*
X254845Y280073D02*
X274478Y280073D01*
X101315Y292100D02*
X33660Y292100D01*
X101315Y292100D02*
X101714Y291701D01*
X38354Y271394D02*
X33660Y266700D01*
X116379Y279403D02*
X121026Y279403D01*
X108370Y271394D02*
X38354Y271394D01*
X108370Y271394D02*
X116379Y279403D01*
X20328Y416814D02*
X20328Y468732D01*
X19160Y469900D01*
X188600Y381000D02*
X231018Y423418D01*
X242824Y423418D01*
X398721Y419291D02*
X428109Y419291D01*
X448623Y439806D01*
X469900Y383411D02*
X469900Y196740D01*
X465777Y439806D02*
X448623Y439806D01*
X465777Y439806D02*
X477906Y427677D01*
X477906Y391417D01*
X469900Y383411D01*
X127000Y469900D02*
X91560Y469900D01*
X127000Y469900D02*
X139700Y457200D01*
X190500Y457200D02*
X190500Y455300D01*
X116200Y381000D01*
X114863Y91948D02*
X83914Y60999D01*
X114863Y91948D02*
X222360Y91948D01*
X205100Y109208D01*
X205100Y152400D01*
X254000Y201300D01*
X254000Y215900D01*
X76454Y133494D02*
X69960Y127000D01*
X76454Y133494D02*
X76454Y134831D01*
X130100Y188477D01*
X137828Y188477D01*
X292695Y418759D02*
X288036Y423418D01*
X292695Y418759D02*
X322523Y418759D01*
X288036Y423418D02*
X189616Y324998D01*
X169060Y324998D01*
X148859Y304797D02*
X120494Y304797D01*
X148859Y304797D02*
X169060Y324998D01*
X120494Y304797D02*
X115373Y304797D01*
X38354Y312806D02*
X33660Y317500D01*
X107364Y312806D02*
X115373Y304797D01*
X107364Y312806D02*
X38354Y312806D01*
X33660Y357565D02*
X19618Y371607D01*
X33660Y357565D02*
X33660Y317500D01*
X76454Y209694D02*
X69960Y203200D01*
X126823Y298469D02*
X120494Y304797D01*
X126823Y298469D02*
X128923Y298469D01*
X140092Y287300D01*
X140092Y271505D01*
X114445Y245859D01*
X110016Y245859D01*
X76454Y212296D01*
X76454Y209694D01*
M02*
