M48
;GenerationSoftware,Autodesk,EAGLE,9.7.0*%
;CreationDate,2025-03-18T22:10:15Z*%
FMAT,2
ICI,OFF
METRIC,TZ,000.000
T3C1.000
T2C1.016
T1C1.200
%
G90
M71
T1
X45720Y46990
X45720Y41910
X17780Y30390
X22854Y30638
X13970Y45720
X19050Y45720
X3366Y31750
X3366Y26670
X3366Y29210
X32287Y6350
X37366Y6465
T2
X22236Y4115
X38865Y21755
X41400Y21595
X43935Y21436
X28804Y48844
X1962Y37161
X8463Y37059
X2033Y41681
X8534Y41579
X24282Y42342
X24282Y48844
X28804Y42342
X25400Y21590
X27940Y21590
X30480Y21590
X35675Y30049
X38213Y29938
X40750Y29827
X22236Y9195
X22236Y6655
T3
X9536Y20320
X6996Y20320
X4456Y20320
X4456Y12700
X6996Y12700
X9536Y12700
X32235Y44416
X32252Y41876
X32270Y39336
X39890Y39389
X39872Y41929
X39854Y44469
X12049Y30480
X20510Y15240
X27750Y15240
X38120Y12680
X33000Y17800
X13783Y18848
X14338Y11629
X46990Y12434
X6849Y4082
X19025Y22695
X11785Y22695
X27435Y35247
X27448Y28007
X1916Y46990
X9156Y46990
X11620Y38100
X46990Y19674
X6107Y6248
X8391Y6100
X46932Y5765
X46071Y7887
X44444Y6276
X12103Y27940
X10171Y29170
X18860Y38100
M30